<svg width="120" height="120" viewBox="0 0 120 120" fill="none" xmlns="http://www.w3.org/2000/svg">
<path d="M46.9792 73.5417H73.0209C73.3073 73.5417 73.5417 73.3073 73.5417 73.0208V46.9792C73.5417 46.6927 73.3073 46.4583 73.0209 46.4583H46.9792C46.6927 46.4583 46.4584 46.6927 46.4584 46.9792V73.0208C46.4584 73.3073 46.6927 73.5417 46.9792 73.5417Z" fill="#417FF9"/>
<path d="M10 18.3333V101.667C10 106.276 13.724 110 18.3333 110H101.667C106.276 110 110 106.276 110 101.667V18.3333C110 13.724 106.276 10 101.667 10H18.3333C13.724 10 10 13.724 10 18.3333ZM95.9375 46.4583H81.3542C81.0677 46.4583 80.8333 46.6927 80.8333 46.9792V73.0208C80.8333 73.3073 81.0677 73.5417 81.3542 73.5417H95.9375C97.9427 73.5417 99.5833 75.1823 99.5833 77.1875C99.5833 79.1927 97.9427 80.8333 95.9375 80.8333H81.3542C81.0677 80.8333 80.8333 81.0677 80.8333 81.3542V95.9375C80.8333 97.9427 79.1927 99.5833 77.1875 99.5833C75.1823 99.5833 73.5417 97.9427 73.5417 95.9375V81.3542C73.5417 81.0677 73.3073 80.8333 73.0208 80.8333H46.9792C46.6927 80.8333 46.4583 81.0677 46.4583 81.3542V95.9375C46.4583 97.9427 44.8177 99.5833 42.8125 99.5833C40.8073 99.5833 39.1667 97.9427 39.1667 95.9375V81.3542C39.1667 81.0677 38.9323 80.8333 38.6458 80.8333H24.0625C22.0573 80.8333 20.4167 79.1927 20.4167 77.1875C20.4167 75.1823 22.0573 73.5417 24.0625 73.5417H38.6458C38.9323 73.5417 39.1667 73.3073 39.1667 73.0208V46.9792C39.1667 46.6927 38.9323 46.4583 38.6458 46.4583H24.0625C22.0573 46.4583 20.4167 44.8177 20.4167 42.8125C20.4167 40.8073 22.0573 39.1667 24.0625 39.1667H38.6458C38.9323 39.1667 39.1667 38.9323 39.1667 38.6458V24.0625C39.1667 22.0573 40.8073 20.4167 42.8125 20.4167C44.8177 20.4167 46.4583 22.0573 46.4583 24.0625V38.6458C46.4583 38.9323 46.6927 39.1667 46.9792 39.1667H73.0208C73.3073 39.1667 73.5417 38.9323 73.5417 38.6458V24.0625C73.5417 22.0573 75.1823 20.4167 77.1875 20.4167C79.1927 20.4167 80.8333 22.0573 80.8333 24.0625V38.6458C80.8333 38.9323 81.0677 39.1667 81.3542 39.1667H95.9375C97.9427 39.1667 99.5833 40.8073 99.5833 42.8125C99.5833 44.8177 97.9427 46.4583 95.9375 46.4583Z" fill="#417FF9"/>
</svg>
